VIDEO INFO:

Format                           : Matroska
File size                        : 4.37 GiB
Duration                         : 2h 16mn
Overall bit rate                 : 4 577 Kbps
Movie name                       : Rosemary's.Baby.1968.720p.HDTV.x264-NWO
Encoded date                     : UTC 2011-07-31 21:01:00
Writing application              : mkvmerge v4.9.1 ('Ich will') gemaakt op Jul 11 2011 23:53:15
Writing library                  : libebml v1.2.1 + libmatroska v1.1.1

Video
ID                               : 1
Format                           : AVC
Format/Info                      : Advanced Video Codec
Format profile                   : High@L5.1
Format settings, CABAC           : Yes
Format settings, ReFrames        : 7 frames
Codec ID                         : V_MPEG4/ISO/AVC
Duration                         : 2h 16mn
Bit rate                         : 4 383 Kbps
Width                            : 1 280 pixels
Height                           : 688 pixels
Display aspect ratio             : 1.860
Frame rate                       : 23.976 fps
Color space                      : YUV
Chroma subsampling               : 4:2:0
Bit depth                        : 8 bits
Scan type                        : Progressive
Bits/(Pixel*Frame)               : 0.208
Stream size                      : 4.10 GiB (94%)
Writing library                  : x264 core 55 svn-663C
Encoding settings                : cabac=1 / ref=4 / deblock=1:-3:-2 / analyse=0x3:0x133 / me=umh / subme=7 / brdo=1 / mixed_ref=1 / me_range=16 / chroma_me=1 / trellis=1 / 8x8dct=1 / cqm=2 / deadzone=21,11 / chroma_qp_offset=0 / threads=3 / nr=0 / decimate=1 / mbaff=0 / bframes=3 / b_pyramid=1 / b_adapt=1 / b_bias=0 / direct=3 / wpredb=1 / bime=1 / keyint=250 / keyint_min=25 / scenecut=40(pre) / rc=2pass / bitrate=4383 / ratetol=1.0 / rceq='blurCplx^(1-qComp)' / qcomp=0.60 / qpmin=10 / qpmax=51 / qpstep=4 / cplxblur=20.0 / qblur=0.5 / ip_ratio=1.40 / pb_ratio=1.30 / aq=1:0.4:15.0
Language                         : English

Audio
ID                               : 2
Format                           : AC-3
Format/Info                      : Audio Coding 3
Mode extension                   : CM (complete main)
Codec ID                         : A_AC3
Duration                         : 2h 16mn
Bit rate mode                    : Constant
Bit rate                         : 192 Kbps
Channel(s)                       : 2 channels
Channel positions                : Front: L R
Sampling rate                    : 48.0 KHz
Bit depth                        : 16 bits
Compression mode                 : Lossy
Stream size                      : 188 MiB (4%)
Language                         : English

Text
ID                               : 3
Format                           : UTF-8
Codec ID                         : S_TEXT/UTF8
Codec ID/Info                    : UTF-8 Plain Text
Language                         : Dutch

-------------------------------------

Verenigde Staten
Horror / Mystery
136 minuten

geregisseerd door Roman Polanski
met Mia Farrow, John Cassavetes en Ruth Gordon

Rosemary en Guy zijn net getrouwd en betrekken een groot appartement in New York. Al snel raken ze bevriend met een stel dat naast hen woont. Guy brengt steeds meer tijd door bij deze buren. Na de zelfmoord van een vrouw uit de buurt begint Rosemary vreemde dromen te krijgen en hoort ze rare geluiden. Het lijkt erop dat Guy steeds meer afgesloten van Rosemary leeft. Ze krijgt steeds meer aandacht van haar buren en als ze zwanger raakt, blijkt dat de buren speciale plannen hebben met haar kind.

-Ondertiteling (nederlands) in film met de mogelijkheid deze aan/uit te schakelen.